<mxfile host="app.diagrams.net" modified="2021-12-30T19:14:37.779Z" agent="5.0 (Macintosh; Intel Mac OS X 10_15_7) AppleWebKit/537.36 (KHTML, like Gecko) Chrome/96.0.4664.110 Safari/537.36" etag="cOHA8Z9v8ahcjnT3QFHG" version="16.1.2" type="github">
  <diagram id="1uPX9x_j-0sSFSPksJR1" name="第 1 页">
    <mxGraphModel dx="983" dy="651" grid="1" gridSize="10" guides="1" tooltips="1" connect="1" arrows="1" fold="1" page="1" pageScale="1" pageWidth="827" pageHeight="1169" math="0" shadow="0">
      <root>
        <mxCell id="0" />
        <mxCell id="1" parent="0" />
        <mxCell id="jL_A4L4SQUctZz-q6Tk6-27" value="" style="rounded=1;whiteSpace=wrap;html=1;fontFamily=Comic Sans MS;strokeColor=default;glass=1;shadow=1;sketch=0;fillColor=#E6E6E6;" vertex="1" parent="1">
          <mxGeometry x="40" y="20" width="780" height="440" as="geometry" />
        </mxCell>
        <mxCell id="jL_A4L4SQUctZz-q6Tk6-15" value="reopen" style="edgeStyle=orthogonalEdgeStyle;rounded=0;orthogonalLoop=1;jettySize=auto;html=1;exitX=0;exitY=1;exitDx=0;exitDy=0;entryX=1;entryY=1;entryDx=0;entryDy=0;fontFamily=Comic Sans MS;" edge="1" parent="1" source="jL_A4L4SQUctZz-q6Tk6-1" target="jL_A4L4SQUctZz-q6Tk6-2">
          <mxGeometry relative="1" as="geometry" />
        </mxCell>
        <mxCell id="jL_A4L4SQUctZz-q6Tk6-16" style="rounded=0;orthogonalLoop=1;jettySize=auto;html=1;exitX=0.5;exitY=1;exitDx=0;exitDy=0;entryX=0.5;entryY=0;entryDx=0;entryDy=0;fontFamily=Comic Sans MS;" edge="1" parent="1" source="jL_A4L4SQUctZz-q6Tk6-1" target="jL_A4L4SQUctZz-q6Tk6-29">
          <mxGeometry relative="1" as="geometry">
            <mxPoint x="480" y="360" as="targetPoint" />
          </mxGeometry>
        </mxCell>
        <mxCell id="jL_A4L4SQUctZz-q6Tk6-17" value="&amp;nbsp;succeeded" style="edgeLabel;html=1;align=center;verticalAlign=middle;resizable=0;points=[];fontFamily=Comic Sans MS;" vertex="1" connectable="0" parent="jL_A4L4SQUctZz-q6Tk6-16">
          <mxGeometry x="-0.4431" y="-9" relative="1" as="geometry">
            <mxPoint x="9" y="8" as="offset" />
          </mxGeometry>
        </mxCell>
        <mxCell id="jL_A4L4SQUctZz-q6Tk6-18" value="failed after do_withdraw" style="rounded=0;orthogonalLoop=1;jettySize=auto;html=1;exitX=0.5;exitY=0;exitDx=0;exitDy=0;fontFamily=Comic Sans MS;" edge="1" parent="1" source="jL_A4L4SQUctZz-q6Tk6-1">
          <mxGeometry relative="1" as="geometry">
            <mxPoint x="480" y="120" as="targetPoint" />
            <mxPoint as="offset" />
          </mxGeometry>
        </mxCell>
        <mxCell id="jL_A4L4SQUctZz-q6Tk6-19" value="expired after do_withdraw" style="rounded=0;orthogonalLoop=1;jettySize=auto;html=1;exitX=1;exitY=0.5;exitDx=0;exitDy=0;entryX=0;entryY=0.5;entryDx=0;entryDy=0;edgeStyle=orthogonalEdgeStyle;curved=1;fontFamily=Comic Sans MS;" edge="1" parent="1" source="jL_A4L4SQUctZz-q6Tk6-1" target="jL_A4L4SQUctZz-q6Tk6-30">
          <mxGeometry relative="1" as="geometry">
            <mxPoint x="720" y="240" as="targetPoint" />
            <Array as="points" />
            <mxPoint as="offset" />
          </mxGeometry>
        </mxCell>
        <mxCell id="jL_A4L4SQUctZz-q6Tk6-1" value="Closed" style="ellipse;whiteSpace=wrap;html=1;aspect=fixed;fontFamily=Comic Sans MS;fillColor=#647687;fontColor=#ffffff;strokeColor=#314354;shadow=1;sketch=0;" vertex="1" parent="1">
          <mxGeometry x="440" y="200" width="80" height="80" as="geometry" />
        </mxCell>
        <mxCell id="jL_A4L4SQUctZz-q6Tk6-21" value="close" style="edgeStyle=orthogonalEdgeStyle;curved=1;rounded=0;orthogonalLoop=1;jettySize=auto;html=1;exitX=1;exitY=0;exitDx=0;exitDy=0;entryX=0;entryY=0;entryDx=0;entryDy=0;fontFamily=Comic Sans MS;" edge="1" parent="1" source="jL_A4L4SQUctZz-q6Tk6-2" target="jL_A4L4SQUctZz-q6Tk6-1">
          <mxGeometry relative="1" as="geometry" />
        </mxCell>
        <mxCell id="jL_A4L4SQUctZz-q6Tk6-2" value="Contributing" style="ellipse;whiteSpace=wrap;html=1;aspect=fixed;fontFamily=Comic Sans MS;fillColor=#d80073;fontColor=#ffffff;strokeColor=#A50040;shadow=1;sketch=0;" vertex="1" parent="1">
          <mxGeometry x="280" y="200" width="80" height="80" as="geometry" />
        </mxCell>
        <mxCell id="jL_A4L4SQUctZz-q6Tk6-14" value="open" style="edgeStyle=orthogonalEdgeStyle;rounded=0;orthogonalLoop=1;jettySize=auto;html=1;exitX=1;exitY=0.5;exitDx=0;exitDy=0;entryX=0;entryY=0.5;entryDx=0;entryDy=0;fontFamily=Comic Sans MS;" edge="1" parent="1" source="jL_A4L4SQUctZz-q6Tk6-6" target="jL_A4L4SQUctZz-q6Tk6-2">
          <mxGeometry relative="1" as="geometry" />
        </mxCell>
        <mxCell id="jL_A4L4SQUctZz-q6Tk6-6" value="Pending" style="ellipse;whiteSpace=wrap;html=1;aspect=fixed;fontFamily=Comic Sans MS;strokeColor=#006EAF;fillColor=#1ba1e2;fontColor=#ffffff;shadow=1;sketch=0;" vertex="1" parent="1">
          <mxGeometry x="120" y="200" width="80" height="80" as="geometry" />
        </mxCell>
        <mxCell id="jL_A4L4SQUctZz-q6Tk6-25" style="edgeStyle=orthogonalEdgeStyle;curved=1;rounded=0;orthogonalLoop=1;jettySize=auto;html=1;exitX=1;exitY=0.5;exitDx=0;exitDy=0;entryX=0;entryY=0.5;entryDx=0;entryDy=0;fontFamily=Comic Sans MS;" edge="1" parent="1" source="jL_A4L4SQUctZz-q6Tk6-23" target="jL_A4L4SQUctZz-q6Tk6-6">
          <mxGeometry relative="1" as="geometry" />
        </mxCell>
        <mxCell id="jL_A4L4SQUctZz-q6Tk6-23" value="" style="ellipse;shape=doubleEllipse;whiteSpace=wrap;html=1;aspect=fixed;fillColor=#1ba1e2;strokeColor=#006EAF;fontColor=#ffffff;fontFamily=Comic Sans MS;shadow=1;sketch=0;" vertex="1" parent="1">
          <mxGeometry x="60" y="230" width="20" height="20" as="geometry" />
        </mxCell>
        <mxCell id="jL_A4L4SQUctZz-q6Tk6-26" value="Start" style="text;html=1;strokeColor=none;fillColor=none;align=center;verticalAlign=middle;whiteSpace=wrap;rounded=0;fontFamily=Comic Sans MS;" vertex="1" parent="1">
          <mxGeometry x="40" y="200" width="60" height="30" as="geometry" />
        </mxCell>
        <mxCell id="jL_A4L4SQUctZz-q6Tk6-29" value="&lt;span style=&quot;color: rgb(255 , 255 , 255)&quot;&gt;Succeed&lt;/span&gt;" style="ellipse;shape=doubleEllipse;whiteSpace=wrap;html=1;aspect=fixed;shadow=1;glass=1;labelBorderColor=none;sketch=0;fontFamily=Comic Sans MS;strokeColor=#FFFFFF;fillColor=#60a917;fontColor=#ffffff;" vertex="1" parent="1">
          <mxGeometry x="440" y="360" width="80" height="80" as="geometry" />
        </mxCell>
        <mxCell id="jL_A4L4SQUctZz-q6Tk6-30" value="&lt;span style=&quot;color: rgb(255 , 255 , 255)&quot;&gt;Expired&lt;/span&gt;" style="ellipse;shape=doubleEllipse;whiteSpace=wrap;html=1;aspect=fixed;shadow=1;glass=1;labelBorderColor=none;sketch=0;fontFamily=Comic Sans MS;strokeColor=#FFFFFF;fillColor=#647687;fontColor=#ffffff;" vertex="1" parent="1">
          <mxGeometry x="720" y="200" width="80" height="80" as="geometry" />
        </mxCell>
        <mxCell id="jL_A4L4SQUctZz-q6Tk6-31" value="&lt;span style=&quot;color: rgb(255 , 255 , 255)&quot;&gt;Failed&lt;/span&gt;" style="ellipse;shape=doubleEllipse;whiteSpace=wrap;html=1;aspect=fixed;shadow=1;glass=1;labelBorderColor=none;sketch=0;fontFamily=Comic Sans MS;strokeColor=#FFFFFF;fillColor=#647687;fontColor=#ffffff;" vertex="1" parent="1">
          <mxGeometry x="440" y="40" width="80" height="80" as="geometry" />
        </mxCell>
        <mxCell id="jL_A4L4SQUctZz-q6Tk6-32" value="Vault Phase" style="text;strokeColor=none;fillColor=none;html=1;fontSize=24;fontStyle=1;verticalAlign=middle;align=center;shadow=0;glass=1;labelBorderColor=none;sketch=0;fontFamily=Comic Sans MS;" vertex="1" parent="1">
          <mxGeometry x="80" y="40" width="100" height="40" as="geometry" />
        </mxCell>
        <mxCell id="jL_A4L4SQUctZz-q6Tk6-33" value="xcm" style="ellipse;shape=cloud;whiteSpace=wrap;html=1;shadow=1;glass=1;labelBorderColor=none;sketch=0;fontFamily=Comic Sans MS;strokeColor=#d6b656;fillColor=#fff2cc;gradientColor=#ffd966;" vertex="1" parent="1">
          <mxGeometry x="590" y="140" width="80" height="50" as="geometry" />
        </mxCell>
        <mxCell id="jL_A4L4SQUctZz-q6Tk6-34" value="" style="endArrow=none;dashed=1;html=1;dashPattern=1 3;strokeWidth=2;rounded=0;fontFamily=Comic Sans MS;curved=1;entryX=0.07;entryY=0.4;entryDx=0;entryDy=0;entryPerimeter=0;" edge="1" parent="1" target="jL_A4L4SQUctZz-q6Tk6-33">
          <mxGeometry width="50" height="50" relative="1" as="geometry">
            <mxPoint x="550" y="160" as="sourcePoint" />
            <mxPoint x="590" y="160" as="targetPoint" />
          </mxGeometry>
        </mxCell>
        <mxCell id="jL_A4L4SQUctZz-q6Tk6-35" value="" style="endArrow=none;dashed=1;html=1;dashPattern=1 3;strokeWidth=2;rounded=0;fontFamily=Comic Sans MS;curved=1;entryX=0.55;entryY=0.95;entryDx=0;entryDy=0;entryPerimeter=0;" edge="1" parent="1" target="jL_A4L4SQUctZz-q6Tk6-33">
          <mxGeometry width="50" height="50" relative="1" as="geometry">
            <mxPoint x="634" y="230" as="sourcePoint" />
            <mxPoint x="610" y="190" as="targetPoint" />
          </mxGeometry>
        </mxCell>
      </root>
    </mxGraphModel>
  </diagram>
</mxfile>
